<svg width="495" height="500" viewBox="0 0 495 500" fill="none" xmlns="http://www.w3.org/2000/svg">
<g clip-path="url(#clip0)">
<path d="M491 382.4H-9V382.65H491V382.4Z" fill="#E6E6E6"/>
<path d="M115.82 397.53H82.7V397.78H115.82V397.53Z" fill="#E6E6E6"/>
<path d="M72.22 397.53H53.03V397.78H72.22V397.53Z" fill="#E6E6E6"/>
<path d="M201.55 401.21H182.36V401.46H201.55V401.21Z" fill="#E6E6E6"/>
<path d="M301.61 406.79H258.42V407.04H301.61V406.79Z" fill="#E6E6E6"/>
<path d="M249.52 406.79H243.19V407.04H249.52V406.79Z" fill="#E6E6E6"/>
<path d="M444.35 401.21H350.67V401.46H444.35V401.21Z" fill="#E6E6E6"/>
<path d="M228 337.8H34.91C33.3974 337.797 31.9476 337.195 30.8789 336.124C29.8102 335.053 29.21 333.603 29.21 332.09V60.66C29.2232 59.156 29.8292 57.718 30.8965 56.6582C31.9637 55.5985 33.406 55.0026 34.91 55H228C229.514 55 230.967 55.6016 232.038 56.6724C233.108 57.7433 233.71 59.1956 233.71 60.71V332.09C233.71 333.604 233.108 335.057 232.038 336.128C230.967 337.198 229.514 337.8 228 337.8ZM34.91 55.2C33.4637 55.2026 32.0775 55.7791 31.0557 56.8027C30.0339 57.8264 29.46 59.2136 29.46 60.66V332.09C29.46 333.536 30.0339 334.924 31.0557 335.947C32.0775 336.971 33.4637 337.547 34.91 337.55H228C229.447 337.547 230.835 336.971 231.858 335.948C232.881 334.924 233.457 333.537 233.46 332.09V60.66C233.457 59.2127 232.881 57.8255 231.858 56.8021C230.835 55.7787 229.447 55.2026 228 55.2H34.91Z" fill="#E6E6E6"/>
<path d="M444.31 337.8H251.21C249.696 337.797 248.246 337.195 247.175 336.125C246.105 335.054 245.503 333.604 245.5 332.09V60.66C245.516 59.1551 246.124 57.7171 247.193 56.6576C248.262 55.5981 249.705 55.0025 251.21 55H444.31C445.812 55.0052 447.252 55.6022 448.317 56.6617C449.382 57.7212 449.987 59.1578 450 60.66V332.09C450 333.601 449.401 335.05 448.335 336.121C447.268 337.191 445.821 337.795 444.31 337.8ZM251.21 55.2C249.763 55.2026 248.375 55.7787 247.352 56.8021C246.329 57.8255 245.753 59.2127 245.75 60.66V332.09C245.753 333.537 246.329 334.924 247.352 335.948C248.375 336.971 249.763 337.547 251.21 337.55H444.31C445.757 337.547 447.145 336.971 448.168 335.948C449.191 334.924 449.767 333.537 449.77 332.09V60.66C449.767 59.2127 449.191 57.8255 448.168 56.8021C447.145 55.7787 445.757 55.2026 444.31 55.2H251.21Z" fill="#E6E6E6"/>
<path d="M258.4 296.98H236.41V384.21H258.4V296.98Z" fill="#E0E0E0"/>
<path d="M254.22 384.21H258.4V372.33H249.84L254.22 384.21Z" fill="#FAFAFA"/>
<path d="M162.04 296.98H140.05V384.21H162.04V296.98Z" fill="#E0E0E0"/>
<path d="M258.4 296.98H158.4V376.92H258.4V296.98Z" fill="#FAFAFA"/>
<path d="M254.77 300.91V322.06H162V300.91H254.74H254.77ZM255.13 300.52H161.64V322.44H255.16V300.52H255.13Z" fill="#E0E0E0"/>
<path d="M162.57 384.21H158.4V372.33H166.95L162.57 384.21Z" fill="#FAFAFA"/>
<path d="M206.19 311.48C206.19 311.917 206.32 312.344 206.562 312.708C206.805 313.071 207.15 313.355 207.554 313.522C207.958 313.689 208.402 313.733 208.831 313.648C209.26 313.562 209.654 313.352 209.963 313.043C210.272 312.734 210.482 312.34 210.568 311.911C210.653 311.482 210.609 311.038 210.442 310.634C210.275 310.23 209.991 309.885 209.628 309.642C209.264 309.4 208.837 309.27 208.4 309.27C207.814 309.27 207.252 309.503 206.837 309.917C206.423 310.332 206.19 310.894 206.19 311.48Z" fill="#E6E6E6"/>
<path d="M254.77 326.37V347.52H162V326.37H254.74H254.77ZM255.13 325.99H161.64V347.91H255.16V326L255.13 325.99Z" fill="#E0E0E0"/>
<path d="M206.19 337C206.19 337.437 206.32 337.864 206.562 338.228C206.805 338.591 207.15 338.875 207.554 339.042C207.958 339.209 208.402 339.253 208.831 339.168C209.26 339.082 209.654 338.872 209.963 338.563C210.272 338.254 210.482 337.86 210.568 337.431C210.653 337.002 210.609 336.558 210.442 336.154C210.275 335.75 209.991 335.405 209.628 335.162C209.264 334.92 208.837 334.79 208.4 334.79C207.814 334.79 207.252 335.023 206.837 335.437C206.423 335.852 206.19 336.414 206.19 337Z" fill="#E6E6E6"/>
<path d="M254.77 351.84V373H162V351.84H254.74H254.77ZM255.13 351.45H161.64V373.38H255.16V351.45H255.13Z" fill="#E0E0E0"/>
<path d="M206.19 362.42C206.192 362.857 206.323 363.283 206.567 363.645C206.811 364.007 207.157 364.289 207.561 364.455C207.965 364.62 208.409 364.663 208.837 364.576C209.265 364.49 209.658 364.279 209.966 363.969C210.274 363.66 210.484 363.266 210.568 362.837C210.653 362.409 210.608 361.965 210.441 361.562C210.273 361.159 209.99 360.814 209.627 360.572C209.264 360.329 208.837 360.2 208.4 360.2C208.109 360.2 207.821 360.257 207.552 360.369C207.283 360.481 207.039 360.644 206.834 360.851C206.628 361.057 206.466 361.302 206.355 361.571C206.245 361.84 206.189 362.129 206.19 362.42Z" fill="#E6E6E6"/>
<path d="M148.61 246.32H126.62V384.22H148.61V246.32Z" fill="#E0E0E0"/>
<path d="M144.43 384.21H148.61V372.33H140.06L144.43 384.21Z" fill="#FAFAFA"/>
<path d="M66.43 246.32H44.44V384.22H66.43V246.32Z" fill="#E0E0E0"/>
<path d="M148.61 246.32H62.78V376.93H148.61V246.32Z" fill="#FAFAFA"/>
<path d="M144.91 250V279.57H66.48V250H144.91ZM145.37 249.55H66V280H145.35V249.56L145.37 249.55Z" fill="#E0E0E0"/>
<path d="M144.91 283.18V361.61H107.55V283.18H144.91ZM145.37 282.72H107.1V362.07H145.37V282.72Z" fill="#E0E0E0"/>
<path d="M103.84 283.18V361.61H66.48V283.18H103.84ZM104.29 282.72H66V362.07H104.27V282.72H104.29Z" fill="#E0E0E0"/>
<path d="M66.96 384.21H62.78V372.33H71.34L66.96 384.21Z" fill="#FAFAFA"/>
<path d="M103.48 264.8C103.478 265.239 103.607 265.67 103.849 266.036C104.092 266.402 104.438 266.689 104.843 266.858C105.249 267.028 105.696 267.073 106.127 266.989C106.558 266.904 106.955 266.693 107.266 266.383C107.578 266.073 107.79 265.678 107.877 265.247C107.963 264.816 107.92 264.369 107.752 263.963C107.584 263.557 107.3 263.209 106.934 262.965C106.569 262.72 106.139 262.59 105.7 262.59C105.113 262.59 104.55 262.822 104.134 263.237C103.718 263.651 103.483 264.213 103.48 264.8Z" fill="#E6E6E6"/>
<path d="M111.4 320.53C111.4 320.969 111.53 321.399 111.775 321.764C112.019 322.13 112.367 322.414 112.773 322.582C113.179 322.75 113.626 322.793 114.057 322.707C114.488 322.62 114.883 322.408 115.193 322.096C115.503 321.785 115.714 321.388 115.799 320.957C115.883 320.526 115.838 320.079 115.668 319.673C115.499 319.268 115.212 318.922 114.846 318.679C114.48 318.436 114.049 318.308 113.61 318.31C113.319 318.31 113.031 318.367 112.762 318.479C112.493 318.591 112.249 318.754 112.044 318.961C111.838 319.167 111.676 319.412 111.565 319.681C111.455 319.95 111.399 320.239 111.4 320.53Z" fill="#E6E6E6"/>
<path d="M95.57 320.53C95.572 320.967 95.7033 321.393 95.9473 321.755C96.1913 322.117 96.5372 322.399 96.9412 322.565C97.3452 322.73 97.7892 322.773 98.2172 322.686C98.6453 322.6 99.0381 322.389 99.3462 322.079C99.6543 321.77 99.8638 321.376 99.9482 320.948C100.033 320.519 99.9884 320.075 99.8208 319.672C99.6532 319.269 99.37 318.924 99.0068 318.682C98.6436 318.439 98.2167 318.31 97.78 318.31C97.4889 318.31 97.2007 318.368 96.932 318.479C96.6632 318.591 96.4191 318.755 96.2137 318.961C96.0084 319.167 95.8458 319.412 95.7353 319.681C95.6249 319.951 95.5687 320.239 95.57 320.53Z" fill="#E6E6E6"/>
<path d="M93.07 207.87H83.8C84.6543 212.367 85.1923 216.918 85.41 221.49C85.41 226.49 78.35 246.32 88.41 246.32C98.47 246.32 91.41 226.54 91.41 221.49C91.6443 216.917 92.1989 212.366 93.07 207.87Z" fill="#E0E0E0"/>
<path d="M57.8 228.15V234.15C57.8105 237.367 59.0929 240.448 61.3674 242.723C63.6418 244.997 66.7235 246.279 69.94 246.29H75.94C79.1565 246.279 82.2382 244.997 84.5126 242.723C86.787 240.448 88.0694 237.367 88.08 234.15V228.15H57.8Z" fill="#F5F5F5"/>
<path d="M186.67 284.26C186.67 291.26 194.5 296.98 204.07 296.98H212.71C222.28 296.98 230.11 291.26 230.11 284.26H186.67Z" fill="#E0E0E0"/>
<path d="M415.61 274C410.37 278.28 403.13 286.11 396.51 297.13C392.09 304.47 389.43 312.13 388.26 322.31C388.26 310.81 388.33 298.46 388.37 286.8C389.7 283.8 392.74 276.88 394.92 271.42C402.19 253.19 404.92 248.7 411.45 232.98C420.18 211.98 429.12 187.12 426.56 189.11C421.34 193.16 401.34 230.61 399.18 235.97C393.292 250.274 389.653 265.403 388.39 280.82C388.39 269.82 388.47 259.82 388.51 252.06C388.65 226.75 389.08 218.58 389.29 216.06C390.1 214.78 391.05 213.29 391.61 212.49C396.31 205.69 398.12 199.91 402.54 189.77C408.82 175.42 414.22 149.93 412.64 151.21C406.06 156.57 400.88 168.07 394.06 182.74C387.24 197.41 389.19 205.84 387.84 218.36C387.56 220.82 387.34 230.1 387.18 242.95C385.42 229.25 382.1 220.23 376.05 212.03C368.61 201.94 361.41 195.13 356.13 191.57C350.85 188.01 365.25 212.79 372.13 223.57C378.26 233.21 383.91 241.7 387.13 250.07C386.96 267.5 386.88 289.56 386.88 310.07C385.3 300.73 382.72 290.66 379.28 282.87C375.14 273.51 368.78 259.15 363.71 254.28C362.5 253.11 369.01 281.04 373.19 288.46C377.37 295.88 380.44 302.89 383.07 307.1C383.68 308.1 385.72 311.87 386.88 314.05C386.88 339.12 387.02 361.24 387.24 368.77H388.32C388.25 366.83 388.23 354.07 388.26 337.19C390.87 328.03 396.83 317.57 401.75 308.03C407.11 297.7 420.85 269.75 415.61 274Z" fill="#E0E0E0"/>
<path d="M403.44 384.21H372.1L369.73 353.49H405.81L403.44 384.21Z" fill="#F0F0F0"/>
<path d="M408.14 357.07H367.39L366.23 346.7H409.31L408.14 357.07Z" fill="#F5F5F5"/>
<path d="M115.26 75.5H59.21V137.05H115.26V75.5Z" fill="#E0E0E0"/>
<path d="M121.33 75.5H63.43V137.05H121.33V75.5Z" fill="#F5F5F5"/>
<path d="M116.48 132.2V80.35H68.28V132.2H116.48Z" fill="white"/>
<path d="M104.79 119.62V92.91H79.96V119.62H104.79Z" fill="#F5F5F5"/>
<path d="M401.05 82.67H348.98V139.85H401.05V82.67Z" fill="#E0E0E0"/>
<path d="M406.69 82.67H352.91V139.85H406.69V82.67Z" fill="#F5F5F5"/>
<path d="M402.19 135.34V87.1801H357.42V135.34H402.19Z" fill="white"/>
<path d="M379.8 125.23C387.515 125.23 393.77 118.975 393.77 111.26C393.77 103.545 387.515 97.29 379.8 97.29C372.085 97.29 365.83 103.545 365.83 111.26C365.83 118.975 372.085 125.23 379.8 125.23Z" fill="#F5F5F5"/>
<path d="M173.49 112.2H131.91V157.86H173.49V112.2Z" fill="#E0E0E0"/>
<path d="M177.99 112.2H135.04V157.86H177.99V112.2Z" fill="#F5F5F5"/>
<path d="M174.39 154.26V115.8H138.64V154.26H174.39Z" fill="white"/>
<path d="M156.52 125.3L146.74 142.24H166.3L156.52 125.3Z" fill="#F5F5F5"/>
<path d="M241 427.56C348.082 427.56 434.89 422.492 434.89 416.24C434.89 409.988 348.082 404.92 241 404.92C133.917 404.92 47.11 409.988 47.11 416.24C47.11 422.492 133.917 427.56 241 427.56Z" fill="#F5F5F5"/>
<path d="M340.25 163.43L330.33 159.43C330.33 159.43 317.24 183.3 313.49 184.51C308.39 186.15 297.83 190.71 291.57 191.51C290.72 192.51 289.33 195.62 289.46 196.75C297.87 199.56 316.35 195.83 320.31 192.89C329.32 186.22 340.25 163.43 340.25 163.43Z" fill="#E58A7B"/>
<path d="M343.3 158C345.15 164.83 335.13 178.57 335.13 178.57L322 171.21C322 171.21 324.46 165.56 327.46 159.81C332.27 150.52 341.19 150.21 343.3 158Z" fill="#0C73FE"/>
<path opacity="0.2" d="M343.3 158C345.15 164.83 335.13 178.57 335.13 178.57L322 171.21C322 171.21 324.46 165.56 327.46 159.81C332.27 150.52 341.19 150.21 343.3 158Z" fill="black"/>
<path opacity="0.2" d="M327.21 174.15L332.38 177.05L333.29 161.18C330.28 163.49 328.16 170.45 327.21 174.15Z" fill="black"/>
<path d="M334.66 152.86C334.66 152.86 324.44 175.6 330.4 217.94H370.67C371.31 211.76 369.19 181.6 376.86 152.48C372.442 151.617 367.973 151.045 363.48 150.77C357.781 150.44 352.069 150.44 346.37 150.77C342.42 151.171 338.505 151.87 334.66 152.86Z" fill="#0C73FE"/>
<path opacity="0.2" d="M334.66 152.86C334.66 152.86 324.44 175.6 330.4 217.94H370.67C371.31 211.76 369.19 181.6 376.86 152.48C372.442 151.617 367.973 151.045 363.48 150.77C357.781 150.44 352.069 150.44 346.37 150.77C342.42 151.171 338.505 151.87 334.66 152.86Z" fill="black"/>
<g style="mix-blend-mode:multiply">
<path d="M325.32 417.14C325.26 418.22 340.53 419.09 359.42 419.09C378.31 419.09 393.69 418.22 393.75 417.14C393.81 416.06 378.55 415.2 359.65 415.2C340.75 415.2 325.39 416.07 325.32 417.14Z" fill="#E8ECF1"/>
</g>
<path d="M352.201 388.763L345.058 391.528L351.211 407.421L358.353 404.656L352.201 388.763Z" fill="#E58A7B"/>
<path d="M384.05 409.45H376.52L373.76 392.02H381.29L384.05 409.45Z" fill="#E58A7B"/>
<path d="M376 408.58H384.46C384.607 408.581 384.749 408.633 384.86 408.728C384.972 408.823 385.046 408.955 385.07 409.1L386.16 415.79C386.183 415.958 386.17 416.129 386.121 416.291C386.072 416.453 385.988 416.603 385.876 416.73C385.765 416.857 385.627 416.959 385.472 417.028C385.317 417.097 385.149 417.132 384.98 417.13C382.03 417.08 380.61 416.9 376.89 416.9C374.6 416.9 369.89 417.14 366.71 417.14C363.53 417.14 363.32 414.02 364.63 413.73C370.51 412.46 372.79 410.73 374.75 409.05C375.096 408.747 375.54 408.579 376 408.58Z" fill="#1B1919"/>
<path d="M351 406L359 403.66C359.143 403.62 359.295 403.63 359.431 403.688C359.568 403.746 359.68 403.849 359.75 403.98L362.75 409.98C362.82 410.132 362.855 410.298 362.854 410.465C362.853 410.633 362.816 410.798 362.744 410.949C362.673 411.101 362.569 411.235 362.441 411.342C362.312 411.449 362.162 411.527 362 411.57C359.09 412.37 357.14 412.86 353.5 413.92C350.99 414.65 348.43 415.84 345.95 416.63C344.23 417.18 340.19 417.2 338.1 417.2C335.01 417.2 334.32 413.94 335.65 413.79C339 413.42 339.45 413.59 341.3 412.66C344.327 411.337 347.071 409.442 349.38 407.08C349.816 406.584 350.374 406.211 351 406Z" fill="#1B1919"/>
<path d="M292.83 191.47L284.55 188L281.14 197.18C284.534 197.697 287.986 197.697 291.38 197.18L292.83 191.47Z" fill="#E58A7B"/>
<path d="M278.39 187.76L278.17 193.86L281.14 197.16L284.55 187.98L278.39 187.76Z" fill="#E58A7B"/>
<path d="M353.18 390.113L346.016 392.879L349.189 401.097L356.353 398.331L353.18 390.113Z" fill="#CF6F64"/>
<path d="M381.29 392.02H373.76L375.19 401.01H382.72L381.29 392.02Z" fill="#CF6F64"/>
<path opacity="0.2" d="M329.12 206.49C329.27 208.3 329.44 210.15 329.66 212.05L359.6 202.33C364.276 200.944 368.339 198.006 371.12 194C371.24 191.33 371.39 188.52 371.62 185.59C371.72 184.17 371.84 182.71 371.97 181.23C372.1 179.75 372.28 178.11 372.47 176.53L329.12 206.49Z" fill="black"/>
<path d="M338.9 173.69L337.9 173.57C338.49 168.57 342.22 164.63 346.15 164.73V165.73C342.71 165.66 339.43 169.21 338.9 173.69Z" fill="white"/>
<path d="M344.23 182.92H344.06V181.92C347.5 182.05 350.73 178.46 351.26 173.99L352.26 174.11C351.73 179 348.12 182.92 344.23 182.92Z" fill="white"/>
<path d="M362.92 131.5C361.51 137.01 359.85 147.1 363.48 150.77C363.48 150.77 360.94 156.36 350.71 156.36C341.36 156.36 346.37 150.77 346.37 150.77C352.59 149.31 352.7 144.77 351.88 140.47L362.92 131.5Z" fill="#E58A7B"/>
<path d="M358.42 135.16L351.89 140.47C352.092 141.458 352.21 142.462 352.24 143.47C354.15 145.37 357.98 140.56 358.37 138.1C358.568 137.132 358.585 136.135 358.42 135.16Z" fill="#CF6F64"/>
<path d="M340.66 131.43C341.114 132.218 341.726 132.903 342.458 133.443C343.189 133.983 344.024 134.367 344.91 134.57C347.31 135.1 348.51 132.89 347.85 130.67C347.26 128.67 345.29 125.98 342.85 126.44C342.327 126.548 341.838 126.779 341.423 127.115C341.008 127.45 340.68 127.88 340.465 128.369C340.251 128.858 340.157 129.391 340.191 129.923C340.224 130.456 340.385 130.972 340.66 131.43Z" fill="#CF6F64"/>
<path d="M344.63 113.8C340.89 115.51 339.57 130.37 344.27 132.57C348.97 134.77 351.71 110.55 344.63 113.8Z" fill="#1B1919"/>
<path d="M364.06 123.21C363.16 130.67 363.06 135.06 359.06 138.88C357.82 140.148 356.255 141.048 354.536 141.482C352.817 141.916 351.011 141.866 349.319 141.339C347.626 140.811 346.112 139.826 344.944 138.492C343.776 137.158 343 135.527 342.7 133.78C341.49 127.08 343.16 116.01 350.64 113.04C352.212 112.347 353.94 112.087 355.646 112.286C357.352 112.486 358.974 113.138 360.343 114.176C361.712 115.213 362.778 116.598 363.432 118.187C364.086 119.775 364.302 121.509 364.06 123.21Z" fill="#E58A7B"/>
<path d="M351.77 117.66C357.31 116.25 361.38 115.29 359.92 119.9C357.99 126.06 355.67 132.02 358.78 132.29C360.68 132.46 369.08 128.9 368.01 125.29C367.08 122.15 371.01 121.29 371.71 119.7C374.3 113.94 366.89 114.7 368.21 111.2C369.53 107.7 362.21 102.06 358.21 104.87C351.7 109.41 340.53 109.34 346.4 101.87C350.61 96.5401 343.1 97.6301 343.1 97.6301C343.1 97.6301 347.64 100.32 340 104.48C331.92 108.92 339.33 120.85 351.77 117.66Z" fill="#1B1919"/>
<path d="M367 131.43C365.906 133.013 364.263 134.132 362.39 134.57C359.92 135.1 358.97 132.89 359.9 130.67C360.73 128.67 363.01 125.98 365.37 126.44C367.73 126.9 368.27 129.47 367 131.43Z" fill="#E58A7B"/>
<path d="M330.4 217.94C330.4 217.94 323.64 278.44 323.11 301.4C322.57 325.28 346.02 399.79 346.02 399.79L358.02 394.79C358.02 394.79 344.02 326.71 346.02 303.26C348.14 277.69 356.9 217.98 356.9 217.98L330.4 217.94Z" fill="#0C73FE"/>
<path opacity="0.2" d="M347.2 234.55C341.81 245.73 345.44 267.84 348.36 280.94C349.47 271.69 350.79 261.65 352.04 252.36C351.92 238.08 350.81 227.05 347.2 234.55Z" fill="black"/>
<path d="M357.49 390.83C357.55 390.83 358.91 394.65 358.91 394.65L345.07 400.47L342.89 396.41L357.49 390.83Z" fill="#0C73FE"/>
<path d="M344.69 217.94C344.69 217.94 349.86 275.48 353.28 297.03C357.04 320.64 371.78 399.27 371.78 399.27H385.57C385.57 399.27 377.31 322.55 375.75 299.17C374.05 273.81 370.67 217.94 370.67 217.94H344.69Z" fill="#0C73FE"/>
<path d="M385.78 395.68C385.84 395.68 386.24 399.53 386.24 399.53H371.08L370 395.11L385.78 395.68Z" fill="#0C73FE"/>
<path opacity="0.2" d="M380.5 391.12C380.469 391.12 380.438 391.11 380.414 391.089C380.391 391.069 380.375 391.041 380.37 391.01C380.29 390.31 372.84 321.01 371.44 300.01C369.92 277.23 366.86 226.7 366.83 226.19C366.829 226.173 366.831 226.157 366.836 226.141C366.841 226.125 366.85 226.111 366.861 226.099C366.873 226.086 366.886 226.077 366.902 226.07C366.917 226.063 366.933 226.06 366.95 226.06C366.983 226.06 367.014 226.072 367.039 226.095C367.063 226.117 367.077 226.147 367.08 226.18C367.08 226.69 370.17 277.18 371.69 300C373.09 321 380.54 390.25 380.61 391C380.613 391.017 380.612 391.034 380.608 391.05C380.604 391.066 380.596 391.081 380.586 391.094C380.576 391.108 380.563 391.119 380.548 391.126C380.533 391.134 380.517 391.139 380.5 391.14V391.12Z" fill="black"/>
<path d="M352.62 125.29C352.62 125.9 352.24 126.39 351.84 126.39C351.44 126.39 351.15 125.9 351.19 125.29C351.23 124.68 351.57 124.19 351.97 124.19C352.37 124.19 352.66 124.69 352.62 125.29Z" fill="#1B1919"/>
<path d="M345.76 125.29C345.76 125.9 345.37 126.39 344.98 126.39C344.59 126.39 344.29 125.9 344.32 125.29C344.35 124.68 344.71 124.19 345.11 124.19C345.51 124.19 345.8 124.69 345.76 125.29Z" fill="#1B1919"/>
<path d="M347.92 125.6C347.085 127.463 346.009 129.208 344.72 130.79C345.72 131.79 347.59 131.33 347.59 131.33L347.92 125.6Z" fill="#DF5753"/>
<path d="M348.1 133.88C348.077 133.88 348.054 133.875 348.033 133.866C348.011 133.857 347.992 133.844 347.976 133.827C347.96 133.81 347.948 133.79 347.94 133.768C347.932 133.746 347.929 133.723 347.93 133.7C347.933 133.651 347.954 133.606 347.989 133.572C348.024 133.539 348.071 133.52 348.12 133.52C348.885 133.525 349.641 133.359 350.333 133.034C351.025 132.709 351.636 132.232 352.12 131.64C352.155 131.61 352.199 131.593 352.245 131.593C352.291 131.593 352.335 131.61 352.37 131.64C352.402 131.674 352.42 131.718 352.42 131.765C352.42 131.812 352.402 131.856 352.37 131.89C351.852 132.519 351.2 133.025 350.461 133.369C349.722 133.714 348.915 133.888 348.1 133.88Z" fill="#1B1919"/>
<path d="M353.84 123.45C353.792 123.475 353.739 123.487 353.685 123.487C353.631 123.487 353.578 123.475 353.53 123.45C353.156 123.208 352.73 123.058 352.287 123.011C351.844 122.964 351.396 123.022 350.98 123.18C350.939 123.2 350.895 123.212 350.85 123.215C350.805 123.218 350.759 123.212 350.716 123.197C350.673 123.182 350.634 123.159 350.6 123.128C350.567 123.098 350.539 123.061 350.52 123.02C350.483 122.931 350.482 122.831 350.517 122.741C350.553 122.652 350.622 122.58 350.71 122.54C351.233 122.327 351.799 122.242 352.362 122.295C352.924 122.347 353.465 122.534 353.94 122.84C353.978 122.866 354.011 122.9 354.036 122.938C354.062 122.977 354.079 123.021 354.087 123.066C354.096 123.112 354.095 123.159 354.085 123.204C354.075 123.249 354.057 123.292 354.03 123.33C353.979 123.387 353.914 123.429 353.84 123.45Z" fill="#1B1919"/>
<path d="M343.11 121.45C343.057 121.437 343.008 121.409 342.97 121.37C342.937 121.337 342.91 121.299 342.892 121.256C342.874 121.213 342.865 121.167 342.865 121.12C342.865 121.073 342.874 121.027 342.892 120.984C342.91 120.942 342.937 120.903 342.97 120.87C343.353 120.44 343.831 120.105 344.365 119.89C344.899 119.674 345.476 119.586 346.05 119.63C346.096 119.637 346.14 119.654 346.179 119.678C346.219 119.703 346.253 119.736 346.279 119.774C346.305 119.813 346.323 119.856 346.332 119.902C346.341 119.948 346.34 119.995 346.33 120.04C346.309 120.133 346.254 120.214 346.177 120.269C346.099 120.325 346.005 120.35 345.91 120.34C345.456 120.311 345.001 120.387 344.58 120.56C344.159 120.733 343.783 121 343.48 121.34C343.434 121.391 343.376 121.428 343.31 121.447C343.245 121.467 343.176 121.468 343.11 121.45Z" fill="#1B1919"/>
<path d="M380.73 162.32L370.33 159.55C370.33 159.55 360.13 184.66 356.52 186.29C351.62 188.53 339.21 196.29 333.93 199.96C333.64 201.21 333.87 204.52 334.53 205.43C343.53 203.79 360.76 197.16 364.36 193.79C372.57 186.1 380.73 162.32 380.73 162.32Z" fill="#E58A7B"/>
<path d="M373.47 409.9C372.962 409.94 372.457 409.802 372.04 409.51C371.911 409.394 371.815 409.246 371.761 409.081C371.706 408.916 371.696 408.74 371.73 408.57C371.736 408.464 371.771 408.361 371.831 408.273C371.891 408.185 371.974 408.115 372.07 408.07C372.91 407.64 375.26 409.13 375.53 409.3C375.56 409.318 375.583 409.346 375.595 409.378C375.608 409.411 375.61 409.446 375.6 409.48C375.591 409.515 375.574 409.547 375.55 409.573C375.525 409.6 375.494 409.619 375.46 409.63C374.808 409.79 374.141 409.881 373.47 409.9ZM372.47 408.34C372.394 408.323 372.316 408.323 372.24 408.34C372.202 408.359 372.17 408.39 372.149 408.427C372.127 408.464 372.117 408.507 372.12 408.55C372.093 408.666 372.098 408.788 372.133 408.902C372.168 409.016 372.233 409.119 372.32 409.2C372.71 409.55 373.69 409.59 374.98 409.34C374.212 408.834 373.347 408.494 372.44 408.34H372.47Z" fill="#0C73FE"/>
<path d="M375.41 409.63C375.384 409.638 375.356 409.638 375.33 409.63C374.58 409.21 373.17 407.56 373.38 406.72C373.411 406.587 373.487 406.468 373.594 406.383C373.701 406.298 373.833 406.251 373.97 406.25C374.104 406.232 374.241 406.243 374.37 406.283C374.5 406.323 374.619 406.39 374.72 406.48C375.55 407.19 375.6 409.37 375.6 409.48C375.605 409.513 375.599 409.546 375.582 409.575C375.566 409.604 375.541 409.627 375.51 409.64C375.476 409.647 375.442 409.643 375.41 409.63ZM374.07 406.58H374C373.77 406.58 373.74 406.71 373.73 406.76C373.61 407.25 374.5 408.5 375.24 409.09C375.237 408.245 374.975 407.422 374.49 406.73C374.374 406.629 374.224 406.575 374.07 406.58Z" fill="#0C73FE"/>
<path d="M346.92 408.65C346.308 408.863 345.642 408.863 345.03 408.65C344.891 408.575 344.773 408.466 344.688 408.333C344.602 408.2 344.551 408.048 344.54 407.89C344.527 407.791 344.54 407.691 344.577 407.598C344.613 407.505 344.673 407.423 344.75 407.36C345.55 406.64 348.82 407.36 349.19 407.5C349.225 407.509 349.256 407.53 349.278 407.559C349.3 407.588 349.311 407.624 349.31 407.66C349.311 407.698 349.302 407.735 349.282 407.767C349.263 407.799 349.234 407.824 349.2 407.84C348.464 408.173 347.701 408.443 346.92 408.65ZM345.29 407.46C345.176 407.483 345.069 407.535 344.98 407.61C344.948 407.634 344.924 407.666 344.91 407.704C344.895 407.741 344.892 407.781 344.9 407.82C344.907 407.925 344.939 408.027 344.995 408.116C345.051 408.205 345.128 408.279 345.22 408.33C345.75 408.61 346.98 408.39 348.57 407.72C347.499 407.45 346.39 407.362 345.29 407.46Z" fill="#0C73FE"/>
<path d="M349.17 407.84H349.09C348.09 407.66 346.09 406.51 346.03 405.65C346.03 405.45 346.12 405.17 346.6 405.01C346.762 404.952 346.934 404.928 347.106 404.938C347.278 404.949 347.446 404.993 347.6 405.07C348.68 405.6 349.25 407.52 349.28 407.61C349.287 407.64 349.286 407.672 349.277 407.702C349.269 407.731 349.252 407.758 349.23 407.78C349.215 407.805 349.195 407.825 349.17 407.84ZM346.8 405.31H346.7C346.39 405.42 346.39 405.55 346.39 405.59C346.39 406.11 347.84 407.06 348.85 407.38C348.617 406.577 348.125 405.874 347.45 405.38C347.249 405.278 347.018 405.253 346.8 405.31Z" fill="#0C73FE"/>
<path d="M334.78 199.37L324.35 204.17L323.14 207.17L326.99 209.76C326.99 209.76 334.19 208.98 336.24 204.35L334.78 199.37Z" fill="#E58A7B"/>
<path d="M335.22 205.6C334.987 203.596 334.325 201.666 333.28 199.94L334.93 198.7C336.171 200.688 336.963 202.924 337.25 205.25L335.22 205.6Z" fill="#1B1919"/>
<path d="M337 200.79C337.22 201.137 337.329 201.543 337.31 201.954C337.292 202.364 337.147 202.759 336.896 203.085C336.645 203.41 336.3 203.65 335.908 203.773C335.515 203.895 335.095 203.893 334.703 203.768C334.312 203.643 333.968 203.4 333.72 203.073C333.471 202.746 333.329 202.35 333.314 201.939C333.298 201.529 333.409 201.123 333.632 200.778C333.855 200.433 334.179 200.165 334.56 200.01C334.987 199.792 335.484 199.752 335.94 199.898C336.397 200.044 336.778 200.365 337 200.79Z" fill="#1B1919"/>
<path d="M317.3 208.05L318.69 209.45L328.05 205.45L324.35 204.17L317.3 208.05Z" fill="#E58A7B"/>
<path opacity="0.2" d="M357.49 390.83C357.55 390.83 358.91 394.65 358.91 394.65L345.07 400.47L342.89 396.41L357.49 390.83Z" fill="black"/>
<path opacity="0.2" d="M385.78 395.68C385.84 395.68 386.24 399.53 386.24 399.53H371.08L370 395.11L385.78 395.68Z" fill="black"/>
<path d="M383.44 159.44C386.19 168.31 375.44 180.44 375.44 180.44L360.59 174.38C362.35 169.253 364.38 164.223 366.67 159.31C371.23 149.48 380.66 150.49 383.44 159.44Z" fill="#0C73FE"/>
<path opacity="0.2" d="M383.44 159.44C386.19 168.31 375.44 180.44 375.44 180.44L360.59 174.38C362.35 169.253 364.38 164.223 366.67 159.31C371.23 149.48 380.66 150.49 383.44 159.44Z" fill="black"/>
<path d="M235.88 70.5699H229.49V71.5999H235.88V70.5699Z" fill="#0C73FE"/>
<path d="M318.598 111.336L317.825 128.499L318.854 128.545L319.627 111.383L318.598 111.336Z" fill="#0C73FE"/>
<path d="M316.61 75.1899H198.61L187.63 320.91H305.63L316.61 75.1899Z" fill="#0C73FE"/>
<path opacity="0.56" d="M313.09 78.5699H195.09L184.11 324.29H302.11L313.09 78.5699Z" fill="#FAFAFA"/>
<path opacity="0.07" d="M309.57 81.9399H191.57L180.58 327.66H298.58L309.57 81.9399Z" fill="#0C73FE"/>
<path d="M296.14 189.11H195.42L194.58 207.91H295.3L296.14 189.11Z" fill="white"/>
<path d="M250.81 175.39H196.03L195.66 183.8H250.44L250.81 175.39Z" fill="#0C73FE"/>
<path d="M293.87 239.85H193.15L192.31 258.65H293.03L293.87 239.85Z" fill="white"/>
<path opacity="0.47" d="M275.4 284.04H207.67L206.66 306.57H274.39L275.4 284.04Z" fill="#0C73FE"/>
<path d="M270.87 310.07H203.14C203.111 310.078 203.08 310.078 203.05 310.07C203.04 310.041 203.04 310.009 203.05 309.98L204.05 287.44C204.05 287.425 204.053 287.409 204.059 287.395C204.065 287.381 204.074 287.369 204.086 287.358C204.097 287.348 204.11 287.34 204.125 287.335C204.139 287.33 204.155 287.329 204.17 287.33H271.9C271.912 287.324 271.926 287.321 271.94 287.321C271.954 287.321 271.968 287.324 271.98 287.33C271.987 287.342 271.991 287.356 271.991 287.37C271.991 287.384 271.987 287.398 271.98 287.41L271 310C270.988 310.023 270.969 310.043 270.946 310.055C270.923 310.068 270.896 310.073 270.87 310.07ZM203.26 309.83H270.75L271.75 287.53H204.26L203.26 309.83Z" fill="white"/>
<path d="M238.98 226.13H193.76L193.39 234.55H238.6L238.98 226.13Z" fill="#0C73FE"/>
<path d="M274.11 128.38C273.852 133.851 271.906 139.109 268.54 143.43C266.048 146.694 262.842 149.344 259.167 151.176C255.492 153.009 251.446 153.975 247.34 154C244.022 154.025 240.733 153.371 237.677 152.077C234.622 150.784 231.863 148.878 229.571 146.478C227.28 144.078 225.504 141.234 224.353 138.121C223.202 135.009 222.701 131.694 222.88 128.38C223.232 121.504 226.197 115.022 231.169 110.26C236.142 105.498 242.745 102.815 249.63 102.76C252.951 102.729 256.243 103.379 259.302 104.671C262.362 105.962 265.124 107.867 267.418 110.268C269.713 112.67 271.49 115.516 272.641 118.631C273.792 121.746 274.292 125.064 274.11 128.38Z" fill="white"/>
<path d="M276.52 108.12C276.455 109.575 275.937 110.973 275.04 112.12C274.376 112.987 273.523 113.691 272.545 114.178C271.568 114.665 270.492 114.922 269.4 114.93C268.342 114.936 267.298 114.684 266.361 114.194C265.423 113.704 264.619 112.992 264.02 112.12C263.227 110.942 262.834 109.539 262.9 108.12C262.997 106.294 263.786 104.574 265.107 103.311C266.428 102.047 268.182 101.335 270.01 101.32C270.892 101.312 271.766 101.485 272.579 101.827C273.392 102.17 274.125 102.675 274.735 103.312C275.345 103.949 275.818 104.705 276.125 105.531C276.432 106.358 276.566 107.239 276.52 108.12Z" fill="#0C73FE"/>
<path d="M206.27 198.51C206.222 199.316 205.87 200.073 205.286 200.63C204.701 201.187 203.927 201.501 203.12 201.51C202.73 201.515 202.344 201.439 201.984 201.289C201.625 201.138 201.3 200.915 201.03 200.634C200.76 200.353 200.551 200.019 200.415 199.654C200.279 199.289 200.219 198.899 200.24 198.51C200.283 197.703 200.634 196.942 201.219 196.384C201.805 195.827 202.581 195.514 203.39 195.51C203.779 195.507 204.165 195.583 204.524 195.734C204.883 195.886 205.207 196.108 205.477 196.389C205.746 196.67 205.956 197.003 206.092 197.368C206.229 197.732 206.289 198.121 206.27 198.51Z" fill="#1B1919"/>
<path d="M219.75 198.51C219.704 199.317 219.353 200.076 218.768 200.633C218.183 201.19 217.408 201.504 216.6 201.51C216.211 201.513 215.826 201.437 215.467 201.286C215.109 201.134 214.786 200.911 214.517 200.63C214.248 200.349 214.039 200.016 213.904 199.651C213.769 199.287 213.71 198.898 213.73 198.51C213.773 197.704 214.122 196.945 214.706 196.388C215.289 195.83 216.063 195.516 216.87 195.51C217.26 195.505 217.646 195.581 218.006 195.731C218.365 195.882 218.69 196.105 218.96 196.386C219.23 196.667 219.439 197.001 219.575 197.366C219.711 197.731 219.771 198.121 219.75 198.51Z" fill="#1B1919"/>
<path d="M233.24 198.51C233.194 199.317 232.843 200.076 232.258 200.633C231.673 201.19 230.898 201.504 230.09 201.51C229.701 201.513 229.315 201.437 228.956 201.286C228.597 201.134 228.273 200.912 228.003 200.631C227.734 200.35 227.524 200.017 227.388 199.652C227.251 199.288 227.191 198.899 227.21 198.51C227.256 197.703 227.607 196.944 228.192 196.387C228.777 195.83 229.552 195.516 230.36 195.51C230.75 195.505 231.136 195.581 231.496 195.731C231.855 195.882 232.18 196.105 232.45 196.386C232.72 196.667 232.929 197.001 233.065 197.366C233.201 197.731 233.261 198.121 233.24 198.51Z" fill="#1B1919"/>
<path d="M204 249.25C203.952 250.056 203.6 250.813 203.016 251.37C202.431 251.927 201.657 252.241 200.85 252.25C200.461 252.253 200.075 252.177 199.716 252.026C199.357 251.874 199.033 251.652 198.763 251.371C198.494 251.09 198.284 250.757 198.148 250.392C198.011 250.028 197.951 249.639 197.97 249.25C198.016 248.443 198.367 247.684 198.952 247.127C199.537 246.57 200.312 246.256 201.12 246.25C201.509 246.247 201.895 246.323 202.254 246.474C202.613 246.625 202.937 246.848 203.207 247.129C203.476 247.41 203.686 247.743 203.822 248.108C203.959 248.472 204.019 248.861 204 249.25Z" fill="#1B1919"/>
<path d="M217.48 249.25C217.434 250.055 217.085 250.812 216.502 251.369C215.919 251.926 215.146 252.241 214.34 252.25C213.95 252.255 213.564 252.179 213.204 252.029C212.845 251.878 212.52 251.655 212.25 251.374C211.98 251.093 211.771 250.759 211.635 250.394C211.499 250.029 211.439 249.639 211.46 249.25C211.506 248.443 211.857 247.684 212.442 247.127C213.027 246.57 213.802 246.256 214.61 246.25C214.999 246.247 215.384 246.323 215.743 246.474C216.101 246.626 216.424 246.849 216.693 247.13C216.962 247.411 217.171 247.744 217.306 248.108C217.441 248.473 217.5 248.862 217.48 249.25Z" fill="#1B1919"/>
<path d="M231 249.25C230.954 250.057 230.603 250.816 230.018 251.373C229.433 251.93 228.658 252.244 227.85 252.25C227.461 252.252 227.076 252.174 226.718 252.023C226.36 251.871 226.036 251.648 225.767 251.368C225.497 251.087 225.288 250.755 225.151 250.391C225.014 250.027 224.952 249.638 224.97 249.25C225.018 248.444 225.37 247.687 225.954 247.13C226.539 246.573 227.313 246.259 228.12 246.25C228.51 246.245 228.896 246.321 229.256 246.471C229.615 246.622 229.94 246.845 230.21 247.126C230.48 247.407 230.689 247.741 230.825 248.106C230.961 248.471 231.021 248.861 231 249.25Z" fill="#1B1919"/>
<path d="M244.46 249.25C244.412 250.056 244.06 250.813 243.476 251.37C242.891 251.927 242.117 252.241 241.31 252.25C240.921 252.252 240.536 252.174 240.178 252.023C239.82 251.871 239.496 251.648 239.227 251.368C238.957 251.087 238.748 250.755 238.611 250.391C238.474 250.027 238.412 249.639 238.43 249.25C238.478 248.444 238.83 247.687 239.414 247.13C239.999 246.573 240.773 246.259 241.58 246.25C241.969 246.247 242.355 246.323 242.714 246.474C243.073 246.625 243.397 246.848 243.667 247.129C243.936 247.41 244.146 247.743 244.282 248.108C244.419 248.472 244.479 248.861 244.46 249.25Z" fill="#1B1919"/>
<path d="M258 249.25C257.952 250.056 257.6 250.813 257.016 251.37C256.431 251.927 255.657 252.241 254.85 252.25C254.46 252.255 254.074 252.179 253.714 252.029C253.355 251.878 253.03 251.655 252.76 251.374C252.49 251.093 252.281 250.759 252.145 250.394C252.009 250.029 251.949 249.639 251.97 249.25C252.016 248.443 252.367 247.684 252.952 247.127C253.537 246.57 254.312 246.256 255.12 246.25C255.509 246.247 255.895 246.323 256.254 246.474C256.613 246.625 256.937 246.848 257.207 247.129C257.476 247.41 257.686 247.743 257.822 248.108C257.959 248.472 258.019 248.861 258 249.25Z" fill="#1B1919"/>
<path d="M255.953 127.046C260.139 122.953 260.361 116.392 256.449 112.392C252.538 108.392 245.974 108.467 241.788 112.561C237.603 116.654 237.381 123.214 241.292 127.214C245.204 131.214 251.768 131.139 255.953 127.046Z" fill="#0C73FE"/>
<path d="M268.54 143.43C266.048 146.694 262.842 149.344 259.167 151.176C255.492 153.009 251.446 153.974 247.34 154C243.358 154.034 239.429 153.087 235.899 151.244C232.37 149.401 229.348 146.717 227.1 143.43C231.96 138.59 239.65 135.43 248.17 135.43C256.69 135.43 264.11 138.59 268.54 143.43Z" fill="#0C73FE"/>
<path opacity="0.1" d="M255.953 127.046C260.139 122.953 260.361 116.392 256.449 112.392C252.538 108.392 245.974 108.467 241.788 112.561C237.603 116.654 237.381 123.214 241.292 127.214C245.204 131.214 251.768 131.139 255.953 127.046Z" fill="white"/>
<path opacity="0.1" d="M268.54 143.43C266.048 146.694 262.842 149.344 259.167 151.176C255.492 153.009 251.446 153.974 247.34 154C243.358 154.034 239.429 153.087 235.899 151.244C232.37 149.401 229.348 146.717 227.1 143.43C231.96 138.59 239.65 135.43 248.17 135.43C256.69 135.43 264.11 138.59 268.54 143.43Z" fill="white"/>
<path d="M121.41 212.44C120.46 214.52 119.46 216.81 118.59 219.03C117.72 221.25 116.83 223.54 116.06 225.82C114.488 230.313 113.29 234.929 112.48 239.62L112.26 241.09C112.239 241.342 112.263 241.596 112.33 241.84C112.566 242.669 112.938 243.453 113.43 244.16C114.714 245.991 116.204 247.668 117.87 249.16C119.627 250.794 121.469 252.333 123.39 253.77C125.31 255.25 127.33 256.69 129.32 258.05L127.45 261.56C122.698 259.49 118.188 256.904 114 253.85C111.766 252.221 109.749 250.312 108 248.17C106.963 246.895 106.155 245.45 105.61 243.9C105.293 242.931 105.131 241.919 105.13 240.9C105.13 240.66 105.13 240.31 105.13 240.14V239.65L105.23 238.65C105.803 233.44 106.899 228.301 108.5 223.31C109.28 220.85 110.11 218.4 111.06 216.01C112.01 213.62 112.99 211.28 114.2 208.85L121.41 212.44Z" fill="#E58A7B"/>
<path d="M127.91 257.43L134.98 253.85L133.15 261.61C133.15 261.61 128.3 262.97 126.05 260.61L127.91 257.43Z" fill="#E58A7B"/>
<path d="M141.45 255.12L139.57 261.54L133.15 261.61L134.98 253.85L141.45 255.12Z" fill="#E58A7B"/>
<path d="M151.43 175C151.808 176.386 152.335 177.727 153 179C152.806 179.22 152.555 179.384 152.275 179.474C151.995 179.564 151.696 179.576 151.41 179.51L151.43 175Z" fill="#DF5753"/>
<path d="M151.22 175.06C151.634 175.06 151.97 174.545 151.97 173.91C151.97 173.275 151.634 172.76 151.22 172.76C150.806 172.76 150.47 173.275 150.47 173.91C150.47 174.545 150.806 175.06 151.22 175.06Z" fill="#1B1919"/>
<path d="M151 172.8L152.52 172.37C152.52 172.37 151.78 173.55 151 172.8Z" fill="#1B1919"/>
<path d="M131.9 182.34C132.81 186.99 133.72 195.52 130.46 198.63C130.46 198.63 131.74 203.35 140.39 203.35C149.9 203.35 144.93 198.63 144.93 198.63C139.74 197.39 139.87 193.54 140.78 189.92L131.9 182.34Z" fill="#E58A7B"/>
<path d="M129.37 171.74C129.85 179.51 129.89 182.81 133.81 186.8C139.72 192.8 149.16 190.52 151.01 182.8C152.68 175.8 151.62 164.28 144.01 161.19C142.34 160.502 140.521 160.251 138.727 160.462C136.933 160.672 135.222 161.337 133.756 162.393C132.29 163.45 131.118 164.862 130.351 166.498C129.583 168.133 129.246 169.938 129.37 171.74Z" fill="#E58A7B"/>
<path d="M130.14 163C126.24 164.42 121.04 163.36 123.08 175.39C125.24 188.13 121.92 192.32 121.92 192.32C121.92 192.32 136.71 195.47 151.81 192.13C151.81 192.13 147.2 184.07 148.49 178.13C150.14 170.63 148.84 167.86 148.84 167.86C148.84 167.86 135.62 161 130.14 163Z" fill="#1B1919"/>
<path d="M146.64 175.79C146.644 177.267 147.067 178.713 147.86 179.96C148.92 181.58 150.17 180.96 150.48 179.24C150.76 177.73 150.55 175.06 149.2 174.02C147.85 172.98 146.66 174 146.64 175.79Z" fill="#E58A7B"/>
<path d="M126.75 164.31C125.63 161.16 130.97 156.31 142.27 158.31C153.57 160.31 154.06 169.72 154.06 169.72L151.78 167L151.88 169.86L140.27 172.09L126.75 164.31Z" fill="#1B1919"/>
<path d="M127.71 199.16C127.643 198.703 127.758 198.239 128.028 197.865C128.299 197.492 128.705 197.239 129.16 197.16C132.68 196.58 140.68 195.4 144.7 195.96C147.7 196.38 148.48 198.12 148.61 199.55C148.63 199.8 148.597 200.052 148.512 200.289C148.427 200.525 148.292 200.74 148.117 200.92C147.942 201.1 147.73 201.241 147.496 201.332C147.262 201.423 147.011 201.464 146.76 201.45L129.38 200.67C128.97 200.649 128.58 200.488 128.276 200.213C127.972 199.937 127.772 199.566 127.71 199.16Z" fill="#0C73FE"/>
<path opacity="0.6" d="M127.71 199.16C127.643 198.703 127.758 198.239 128.028 197.865C128.299 197.492 128.705 197.239 129.16 197.16C132.68 196.58 140.68 195.4 144.7 195.96C147.7 196.38 148.48 198.12 148.61 199.55C148.63 199.8 148.597 200.052 148.512 200.289C148.427 200.525 148.292 200.74 148.117 200.92C147.942 201.1 147.73 201.241 147.496 201.332C147.262 201.423 147.011 201.464 146.76 201.45L129.38 200.67C128.97 200.649 128.58 200.488 128.276 200.213C127.972 199.937 127.772 199.566 127.71 199.16Z" fill="black"/>
<path d="M137.76 373.86L144.21 378.34L155 363.71L148.55 359.24L137.76 373.86Z" fill="#E58A7B"/>
<path d="M122.72 373.57L129.53 377.45L139.08 361.98L132.27 358.1L122.72 373.57Z" fill="#E58A7B"/>
<path d="M154.99 363.71L149.43 371.25L142.98 366.78L148.54 359.24L154.99 363.71Z" fill="#CF6F64"/>
<path d="M132.26 358.1L139.08 361.99L134.16 369.96L127.34 366.07L132.26 358.1Z" fill="#CF6F64"/>
<path d="M143.2 248C143.2 248 168.38 279.73 163.65 310.08C159.84 334.59 137.74 367.78 137.74 367.78L127.35 362.62C134.674 347.945 140.923 332.759 146.05 317.18C147.631 312.343 148.092 307.211 147.399 302.17C146.707 297.128 144.877 292.311 142.05 288.08C129.29 269.45 108.85 280.54 122.6 248H143.2Z" fill="#0C73FE"/>
<path opacity="0.6" d="M143.2 248C143.2 248 168.38 279.73 163.65 310.08C159.84 334.59 137.74 367.78 137.74 367.78L127.35 362.62C134.674 347.945 140.923 332.759 146.05 317.18C147.631 312.343 148.092 307.211 147.399 302.17C146.707 297.128 144.877 292.311 142.05 288.08C129.29 269.45 108.85 280.54 122.6 248H143.2Z" fill="black"/>
<path opacity="0.4" d="M155.55 268.38L151.89 264.74C151.89 265.03 158.98 308.8 160.97 321.1C162.144 317.507 163.044 313.83 163.66 310.1C166 295.21 161.11 280 155.55 268.38Z" fill="black"/>
<path d="M154.44 248C154.44 248 184.76 287.88 185.62 311.79C186.33 331.79 152.62 370.54 152.62 370.54L142.82 364.2C142.82 364.2 162.55 336.68 167.52 314.2C165.6 291.92 125 248 125 248H154.44Z" fill="#0C73FE"/>
<path opacity="0.6" d="M154.44 248C154.44 248 184.76 287.88 185.62 311.79C186.33 331.79 152.62 370.54 152.62 370.54L142.82 364.2C142.82 364.2 162.55 336.68 167.52 314.2C165.6 291.92 125 248 125 248H154.44Z" fill="black"/>
<path d="M116.93 200.41C113.69 201.18 110.58 212.96 110.58 212.96L123.25 221.42C123.25 221.42 127.47 212.1 125.99 208.02C124.46 203.77 121 199.44 116.93 200.41Z" fill="#0C73FE"/>
<path opacity="0.2" d="M119.41 208L118.53 218.27L123.24 221.43C124.541 218.502 125.503 215.436 126.11 212.29L119.41 208Z" fill="black"/>
<path d="M158.19 200.64C158.19 200.64 161.93 201.95 154.44 247.99H122.58C123.12 234.99 123.13 226.99 116.93 200.41C121.391 199.491 125.913 198.896 130.46 198.63C135.277 198.285 140.113 198.285 144.93 198.63C151.15 199.2 158.19 200.64 158.19 200.64Z" fill="#0C73FE"/>
<path d="M161.43 208C162.15 210 162.91 212.15 163.71 214.22C164.51 216.29 165.27 218.42 166.08 220.52L168.53 226.8L169.15 228.37L169.47 229.15L169.62 229.54C169.62 229.61 169.62 229.61 169.62 229.6C169.437 229.342 169.198 229.13 168.92 228.98C168.524 228.747 168.078 228.613 167.62 228.59C167.239 228.578 166.86 228.65 166.51 228.8C166.05 229.01 166.05 229.1 166.06 229.09C166.143 229.023 166.217 228.946 166.28 228.86C166.834 228.133 167.313 227.353 167.71 226.53C168.18 225.61 168.63 224.63 169.08 223.64C169.96 221.64 170.77 219.57 171.58 217.48C172.39 215.39 173.16 213.28 173.91 211.15L176.19 204.77L180.04 205.77C179.28 210.33 178.3 214.77 177.12 219.29C176.55 221.54 175.88 223.77 175.12 226.02C174.74 227.15 174.32 228.27 173.84 229.42C173.34 230.668 172.724 231.867 172 233C171.734 233.381 171.44 233.742 171.12 234.08C170.609 234.632 169.99 235.071 169.3 235.37C168.688 235.633 168.025 235.756 167.36 235.73C166.615 235.702 165.889 235.485 165.25 235.1C164.497 234.63 163.871 233.981 163.43 233.21C163.28 232.95 163.15 232.69 163.06 232.5L162.87 232.12L162.49 231.34L161.73 229.79C160.73 227.71 159.73 225.61 158.86 223.5C157.99 221.39 157.07 219.25 156.21 217.1C155.35 214.95 154.58 212.8 153.85 210.48L161.43 208Z" fill="#E58A7B"/>
<path d="M158.19 200.64C162.02 201.55 166.33 212.87 166.33 212.87L154.94 222.56C154.94 222.56 147.57 210.22 149.06 206.15C150.61 201.91 153.19 199.45 158.19 200.64Z" fill="#0C73FE"/>
<path d="M178 201.19L182 197.85L184.78 202.18L182.73 205.79C182.73 205.79 179.47 208.79 176.59 207.26C176.133 206.233 176.023 205.084 176.278 203.989C176.532 202.893 177.137 201.911 178 201.19Z" fill="#E58A7B"/>
<path d="M189.22 197.86L188.92 198.95L182.59 200.01L181.97 197.85L189.22 197.86Z" fill="#E58A7B"/>
<path d="M153.4 371.05L141.98 363.67L144.03 360.11L156.86 368L153.4 371.05Z" fill="#0C73FE"/>
<path d="M134 376.93C132.998 376.808 132.035 376.466 131.18 375.93C131.145 375.918 131.114 375.895 131.092 375.864C131.071 375.834 131.059 375.797 131.059 375.76C131.059 375.723 131.071 375.686 131.092 375.656C131.114 375.625 131.145 375.602 131.18 375.59C131.49 375.49 134.18 374.66 134.96 375.3C135.048 375.373 135.114 375.468 135.153 375.575C135.192 375.682 135.201 375.798 135.18 375.91C135.166 376.09 135.106 376.263 135.007 376.414C134.907 376.564 134.77 376.687 134.61 376.77C134.423 376.872 134.213 376.927 134 376.93ZM131.75 375.83C133 376.47 134 376.7 134.48 376.46C134.585 376.402 134.672 376.318 134.736 376.217C134.799 376.115 134.834 375.999 134.84 375.88C134.84 375.72 134.84 375.65 134.75 375.61C134.33 375.27 132.83 375.53 131.73 375.83H131.75Z" fill="#1B1919"/>
<path d="M131.25 376C131.197 375.999 131.147 375.978 131.11 375.94C131.095 375.912 131.087 375.881 131.087 375.85C131.087 375.819 131.095 375.788 131.11 375.76C131.11 375.67 131.76 373.5 132.78 373.01C132.91 372.951 133.052 372.92 133.195 372.92C133.338 372.92 133.48 372.951 133.61 373.01C133.75 373.054 133.872 373.144 133.955 373.266C134.039 373.387 134.079 373.533 134.07 373.68C134 374.58 132.17 375.82 131.33 376.03L131.25 376ZM133.19 373.27C133.093 373.273 132.997 373.297 132.91 373.34C132.29 373.64 131.78 374.81 131.53 375.52C132.41 375.15 133.62 374.17 133.66 373.62C133.66 373.53 133.66 373.42 133.43 373.32C133.355 373.28 133.274 373.253 133.19 373.24V373.27Z" fill="#1B1919"/>
<path d="M148.27 381.25C147.14 381.25 145.57 379.8 144.71 378.91C144.688 378.879 144.676 378.843 144.676 378.805C144.676 378.767 144.688 378.731 144.71 378.7C144.73 378.668 144.758 378.641 144.791 378.624C144.825 378.606 144.862 378.598 144.9 378.6C145.3 378.6 148.77 379.12 149.26 380.1C149.312 380.188 149.339 380.288 149.339 380.39C149.339 380.492 149.312 380.592 149.26 380.68C149.187 380.833 149.075 380.964 148.937 381.062C148.799 381.16 148.638 381.221 148.47 381.24L148.27 381.25ZM145.37 379.05C146.63 380.27 147.74 380.95 148.37 380.87C148.48 380.856 148.585 380.814 148.676 380.75C148.767 380.685 148.84 380.6 148.89 380.5C148.912 380.466 148.924 380.426 148.924 380.385C148.924 380.344 148.912 380.304 148.89 380.27C148.63 379.73 146.78 379.27 145.37 379.05Z" fill="#1B1919"/>
<path d="M145.48 379C145.256 379.006 145.031 378.99 144.81 378.95C144.779 378.945 144.75 378.933 144.725 378.914C144.701 378.894 144.682 378.869 144.67 378.84C144.655 378.811 144.647 378.778 144.647 378.745C144.647 378.712 144.655 378.679 144.67 378.65C144.73 378.58 146.08 376.95 147.36 376.84C147.722 376.812 148.081 376.927 148.36 377.16C148.75 377.5 148.73 377.8 148.63 377.99C148.38 378.67 146.65 379 145.48 379ZM145.22 378.63C146.34 378.69 148.13 378.32 148.36 377.83C148.36 377.83 148.44 377.67 148.18 377.45C148.077 377.36 147.956 377.292 147.825 377.251C147.694 377.21 147.556 377.196 147.42 377.21C146.558 377.451 145.79 377.95 145.22 378.64V378.63Z" fill="#1B1919"/>
<path d="M131.52 374.92L123.04 372.52C122.894 372.476 122.736 372.487 122.598 372.552C122.46 372.616 122.35 372.73 122.29 372.87L119.43 379.3C119.363 379.465 119.331 379.642 119.337 379.82C119.344 379.997 119.387 380.172 119.466 380.331C119.544 380.491 119.655 380.632 119.792 380.746C119.929 380.859 120.089 380.943 120.26 380.99C123.26 381.77 124.7 381.99 128.43 383.06C130.73 383.7 134.01 384.89 137.18 385.79C140.35 386.69 141.41 383.6 140.18 382.94C134.62 380 134.18 377.94 132.66 375.74C132.388 375.342 131.984 375.051 131.52 374.92Z" fill="#0C73FE"/>
<path d="M144.94 377.74L137.7 372.74C137.577 372.651 137.426 372.609 137.275 372.624C137.124 372.639 136.983 372.708 136.88 372.82L132.08 377.98C131.963 378.113 131.876 378.27 131.824 378.44C131.772 378.609 131.757 378.788 131.78 378.964C131.803 379.14 131.863 379.309 131.956 379.46C132.049 379.611 132.173 379.741 132.32 379.84C134.87 381.55 136.19 382.24 139.38 384.45C141.38 385.81 145.25 388.83 147.95 390.71C150.65 392.59 152.66 390.01 151.7 388.99C147.4 384.4 146.46 381.52 145.75 378.91C145.627 378.436 145.34 378.022 144.94 377.74Z" fill="#0C73FE"/>
<path d="M139.07 368.44L126.02 361.95L127.37 358.41L141.31 365.25L139.07 368.44Z" fill="#0C73FE"/>
<path d="M122.1 246.12L121 249C120.89 249.22 121.15 249.45 121.52 249.45H154.6C154.89 249.45 155.13 249.31 155.15 249.13L155.43 246.27C155.43 246.08 155.2 245.91 154.89 245.91H122.62C122.523 245.901 122.425 245.915 122.334 245.952C122.244 245.988 122.164 246.046 122.1 246.12Z" fill="#0C73FE"/>
<path opacity="0.4" d="M122.1 246.12L121 249C120.89 249.22 121.15 249.45 121.52 249.45H154.6C154.89 249.45 155.13 249.31 155.15 249.13L155.43 246.27C155.43 246.08 155.2 245.91 154.89 245.91H122.62C122.523 245.901 122.425 245.915 122.334 245.952C122.244 245.988 122.164 246.046 122.1 246.12Z" fill="white"/>
<path d="M127.31 249.73H126.44C126.27 249.73 126.14 249.64 126.15 249.53L126.56 245.82C126.56 245.72 126.72 245.63 126.89 245.63H127.76C127.93 245.63 128.06 245.72 128.05 245.82L127.64 249.53C127.63 249.64 127.48 249.73 127.31 249.73Z" fill="#0C73FE"/>
<path d="M147.71 249.73H146.85C146.68 249.73 146.55 249.64 146.56 249.53L146.96 245.82C146.96 245.72 147.13 245.63 147.3 245.63H148.16C148.33 245.63 148.47 245.72 148.45 245.82L148.05 249.53C148 249.64 147.89 249.73 147.71 249.73Z" fill="#0C73FE"/>
<g style="mix-blend-mode:multiply">
<path d="M126.55 419.08C141.346 419.08 153.34 418.211 153.34 417.14C153.34 416.069 141.346 415.2 126.55 415.2C111.754 415.2 99.76 416.069 99.76 417.14C99.76 418.211 111.754 419.08 126.55 419.08Z" fill="#F5F5F5"/>
</g>
<path d="M142.87 414.4C138.13 413.02 132.87 411.25 129.69 409.4C129.6 409.34 129.5 409.31 129.41 409.26V387.8H139C139.728 387.757 140.412 387.437 140.912 386.907C141.412 386.376 141.691 385.674 141.691 384.945C141.691 384.216 141.412 383.514 140.912 382.983C140.412 382.453 139.728 382.133 139 382.09H129.46V284.27H123.7V382.09H114.17C113.781 382.067 113.391 382.124 113.025 382.257C112.658 382.39 112.323 382.596 112.039 382.864C111.756 383.131 111.53 383.454 111.375 383.812C111.221 384.17 111.141 384.555 111.141 384.945C111.141 385.335 111.221 385.721 111.375 386.078C111.53 386.436 111.756 386.759 112.039 387.026C112.323 387.294 112.658 387.5 113.025 387.633C113.391 387.766 113.781 387.823 114.17 387.8H123.7V409.23C123.61 409.23 123.52 409.31 123.43 409.37C120.2 411.25 114.98 413.02 110.24 414.37C109.92 414.467 109.645 414.675 109.465 414.957C109.285 415.239 109.212 415.576 109.259 415.907C109.306 416.239 109.47 416.542 109.722 416.763C109.973 416.983 110.296 417.106 110.63 417.11H142.48C142.8 417.088 143.102 416.958 143.337 416.74C143.572 416.522 143.725 416.23 143.771 415.913C143.816 415.596 143.752 415.272 143.588 414.997C143.424 414.722 143.171 414.511 142.87 414.4Z" fill="#E0E0E0"/>
<path d="M144.34 274.31H108.78C105.919 274.31 103.6 276.629 103.6 279.49V290.06C103.6 292.921 105.919 295.24 108.78 295.24H144.34C147.201 295.24 149.52 292.921 149.52 290.06V279.49C149.52 276.629 147.201 274.31 144.34 274.31Z" fill="#0C73FE"/>
<path d="M108.45 295.25V297.07C108.45 298.57 110.08 299.79 112.08 299.79H141.08C143.08 299.79 144.71 298.57 144.71 297.07V295.25H108.45Z" fill="#0C73FE"/>
<path opacity="0.3" d="M108.45 295.25V297.07C108.45 298.57 110.08 299.79 112.08 299.79H141.08C143.08 299.79 144.71 298.57 144.71 297.07V295.25H108.45Z" fill="white"/>
</g>
<defs>
<clipPath id="clip0">
<rect width="495" height="500" fill="white"/>
</clipPath>
</defs>
</svg>
